<svg xmlns="http://www.w3.org/2000/svg" viewBox="0 0 32 32" width="32" height="32">
  <defs>
    <linearGradient id="blue-gradient" x1="0%" y1="0%" x2="0%" y2="100%">
      <stop offset="0%" stop-color="#4facfe" /> <stop offset="100%" stop-color="#0072ff" /> </linearGradient>
  </defs>

  <rect x="0" y="0" width="32" height="32" rx="7" fill="url(#blue-gradient)" />

  <g transform="translate(1.6, 1.6) scale(0.9)">
      <path fill="#ffffff" d="M26.8,13.5c0-3.7-2.8-6.7-6.4-7.1c-0.8-2-2.7-3.4-5-3.4c-2.3,0-4.2,1.4-5,3.4C6.8,6.7,4,9.7,4,13.5
    c0,2.6,1.4,5,3.5,6.3v4.8c0,1.3,1.1,2.4,2.4,2.4h11c1.3,0,2.4-1.1,2.4-2.4v-4.8C25.4,18.5,26.8,16.1,26.8,13.5z M21.3,24.6H9.9
    v-3.7h11.4V24.6z"/>
  </g>
</svg>